<svg width="16" height="16" viewBox="0 0 16 16" fill="none" xmlns="http://www.w3.org/2000/svg">
<rect width="16" height="16" fill="#EBD1FF"/>
<path fill-rule="evenodd" clip-rule="evenodd" d="M3.42872 2.23864L8.75487 7.42386C9.08171 7.74206 9.08171 8.25794 8.75487 8.57614L3.42872 13.7614C3.10188 14.0795 2.57197 14.0795 2.24513 13.7614C1.91829 13.4432 1.91829 12.9273 2.24513 12.6091L6.97949 8L2.24513 3.39091C1.91829 3.07272 1.91829 2.55683 2.24513 2.23864C2.57197 1.92045 3.10188 1.92045 3.42872 2.23864Z" fill="#7033AC"/>
<path fill-rule="evenodd" clip-rule="evenodd" d="M12.5713 2.23864L7.24513 7.42386C6.91829 7.74206 6.91829 8.25794 7.24513 8.57614L12.5713 13.7614C12.8981 14.0795 13.428 14.0795 13.7549 13.7614C14.0817 13.4432 14.0817 12.9273 13.7549 12.6091L9.02051 8L13.7549 3.39091C14.0817 3.07272 14.0817 2.55683 13.7549 2.23864C13.428 1.92045 12.8981 1.92045 12.5713 2.23864Z" fill="#7033AC"/>
</svg>
