<svg width="99" height="28" viewBox="0 0 99 28" fill="none" xmlns="http://www.w3.org/2000/svg">
<g clip-path="url(#clip0_18_24)">
<g clip-path="url(#clip1_18_24)">
<path d="M97.8162 19.8503H77.902L78.9019 17.7365L95.5154 17.7052C96.0772 17.7052 96.5588 17.2887 96.6591 16.7125L98.9599 3.34598C99.0201 2.99541 98.9298 2.63444 98.7091 2.36023C98.6 2.22528 98.4639 2.11658 98.3103 2.04166C98.1567 1.96674 97.9892 1.9274 97.8195 1.92637L76.6848 1.85348L76.5042 0.971861C76.3905 0.40957 75.9022 0 75.3471 0H70.1805C69.8674 0 69.5671 0.129087 69.3458 0.358864C69.1244 0.588641 69 0.900285 69 1.22524C69 1.55019 69.1244 1.86184 69.3458 2.09161C69.5671 2.32139 69.8674 2.45048 70.1805 2.45048H74.3907L75.1799 6.34486L77.1228 16.1086L74.6214 20.3466C74.4915 20.5286 74.4133 20.7446 74.3956 20.9704C74.3778 21.1961 74.4213 21.4225 74.5211 21.6239C74.7218 22.0369 75.1264 22.2973 75.5745 22.2973H77.6746C77.2269 22.9145 76.9851 23.6662 76.9857 24.4388C76.9857 26.4034 78.524 28 80.4168 28C82.3096 28 83.8478 26.4034 83.8478 24.4388C83.8478 23.6648 83.6004 22.9116 83.159 22.2973H88.5463C88.0986 22.9145 87.8568 23.6662 87.8574 24.4388C87.8574 26.4034 89.3957 28 91.2885 28C93.1812 28 94.7195 26.4034 94.7195 24.4388C94.7195 23.6648 94.4721 22.9116 94.0307 22.2973H97.8195C98.4683 22.2973 99 21.7489 99 21.072C98.9981 20.7474 98.8725 20.4368 98.6507 20.2079C98.4289 19.979 98.1289 19.8504 97.8162 19.8503ZM77.1763 4.26925L96.4317 4.33519L94.5456 15.2964L79.4202 15.3242L77.1763 4.26925ZM80.4168 25.5356C79.8349 25.5356 79.36 25.0428 79.36 24.4388C79.36 23.8349 79.8349 23.342 80.4168 23.342C80.9987 23.342 81.4735 23.8349 81.4735 24.4388C81.4735 24.7297 81.3622 25.0087 81.164 25.2144C80.9658 25.4201 80.6971 25.5356 80.4168 25.5356ZM91.2885 25.5356C90.7066 25.5356 90.2317 25.0428 90.2317 24.4388C90.2317 23.8349 90.7066 23.342 91.2885 23.342C91.8704 23.342 92.3452 23.8349 92.3452 24.4388C92.3452 24.7297 92.2339 25.0087 92.0357 25.2144C91.8375 25.4201 91.5687 25.5356 91.2885 25.5356Z" fill="#A65CF0"/>
<ellipse cx="65" cy="12.5" rx="7" ry="7.5" fill="#FF862F"/>
<path d="M67.4951 12.4307C67.4951 13.6774 67.29 14.6003 66.8799 15.1992C66.473 15.7982 65.8447 16.0977 64.9951 16.0977C64.1715 16.0977 63.5498 15.7884 63.1299 15.1699C62.7132 14.5514 62.5049 13.6383 62.5049 12.4307C62.5049 11.1709 62.7083 10.2432 63.1152 9.64746C63.5221 9.0485 64.1488 8.74902 64.9951 8.74902C65.8187 8.74902 66.4404 9.06152 66.8604 9.68652C67.2835 10.3115 67.4951 11.2262 67.4951 12.4307ZM64.0039 12.4307C64.0039 13.3063 64.0788 13.9346 64.2285 14.3154C64.3815 14.693 64.637 14.8818 64.9951 14.8818C65.3467 14.8818 65.6006 14.6898 65.7568 14.3057C65.9131 13.9215 65.9912 13.2965 65.9912 12.4307C65.9912 11.555 65.9115 10.9268 65.752 10.5459C65.5957 10.1618 65.3434 9.96973 64.9951 9.96973C64.6403 9.96973 64.3864 10.1618 64.2334 10.5459C64.0804 10.9268 64.0039 11.555 64.0039 12.4307Z" fill="white"/>
</g>
<path d="M24.98 22.8502C24.3278 21.2785 23.3813 19.8508 22.1933 18.6467C21.0089 17.4392 19.6059 16.4764 18.0617 15.8116C18.0478 15.8045 18.034 15.801 18.0202 15.794C20.1742 14.2111 21.5744 11.6327 21.5744 8.72362C21.5744 3.90452 17.7367 0 13 0C8.26333 0 4.42559 3.90452 4.42559 8.72362C4.42559 11.6327 5.82585 14.2111 7.97982 15.7975C7.96599 15.8045 7.95216 15.808 7.93833 15.8151C6.38941 16.4799 4.99952 17.4332 3.80671 18.6503C2.61981 19.8553 1.67349 21.2827 1.02003 22.8538C0.37806 24.3918 0.0318323 26.0409 8.64563e-05 27.7116C-0.000836348 27.7491 0.00563604 27.7865 0.0191224 27.8214C0.0326088 27.8564 0.0528363 27.8882 0.0786129 27.9151C0.104389 27.942 0.135194 27.9633 0.16921 27.9779C0.203227 27.9925 0.239768 28 0.27668 28H2.35113C2.50326 28 2.62427 27.8769 2.62773 27.7256C2.69688 25.0101 3.76868 22.4668 5.66335 20.5392C7.62371 18.5447 10.2271 17.4472 13 17.4472C15.7729 17.4472 18.3763 18.5447 20.3367 20.5392C22.2313 22.4668 23.3031 25.0101 23.3723 27.7256C23.3757 27.8804 23.4967 28 23.6489 28H25.7233C25.7602 28 25.7968 27.9925 25.8308 27.9779C25.8648 27.9633 25.8956 27.942 25.9214 27.9151C25.9472 27.8882 25.9674 27.8564 25.9809 27.8214C25.9944 27.7865 26.0008 27.7491 25.9999 27.7116C25.9653 26.0301 25.6231 24.3945 24.98 22.8502V22.8502ZM13 14.7739C11.413 14.7739 9.91943 14.1442 8.79577 13.001C7.67211 11.8578 7.05323 10.3382 7.05323 8.72362C7.05323 7.10905 7.67211 5.58945 8.79577 4.44623C9.91943 3.30301 11.413 2.67337 13 2.67337C14.587 2.67337 16.0806 3.30301 17.2042 4.44623C18.3279 5.58945 18.9468 7.10905 18.9468 8.72362C18.9468 10.3382 18.3279 11.8578 17.2042 13.001C16.0806 14.1442 14.587 14.7739 13 14.7739Z" fill="#A65CF0"/>
</g>
<defs>
<clipPath id="clip0_18_24">
<rect width="99" height="28" fill="white"/>
</clipPath>
<clipPath id="clip1_18_24">
<rect width="41" height="28" fill="white" transform="translate(58)"/>
</clipPath>
</defs>
</svg>
